<?xml version="1.0" encoding="utf-8"?>
<!-- Generator: Adobe Illustrator 16.0.0, SVG Export Plug-In . SVG Version: 6.00 Build 0)  -->
<!DOCTYPE svg PUBLIC "-//W3C//DTD SVG 1.1//EN" "http://www.w3.org/Graphics/SVG/1.1/DTD/svg11.dtd">
<svg version="1.1" id="Layer_1" xmlns="http://www.w3.org/2000/svg" xmlns:xlink="http://www.w3.org/1999/xlink" x="0px" y="0px"
	 width="14px" height="14px" viewBox="0 0 14 14" enable-background="new 0 0 14 14" xml:space="preserve">
<g>
	<defs>
		<rect id="SVGID_1_" width="14" height="14"/>
	</defs>
	<clipPath id="SVGID_2_">
		<use xlink:href="#SVGID_1_"  overflow="visible"/>
	</clipPath>
	<g clip-path="url(#SVGID_2_)">
		<defs>
			<rect id="SVGID_3_" width="14" height="14"/>
		</defs>
		<clipPath id="SVGID_4_">
			<use xlink:href="#SVGID_3_"  overflow="visible"/>
		</clipPath>
		<g opacity="0.2" clip-path="url(#SVGID_4_)">
			<g>
				<defs>
					<rect id="SVGID_5_" x="7" y="0.695" width="6.305" height="12.609"/>
				</defs>
				<clipPath id="SVGID_6_">
					<use xlink:href="#SVGID_5_"  overflow="visible"/>
				</clipPath>
				<path clip-path="url(#SVGID_6_)" fill="#AAAAAA" d="M13.305,7c0-3.482-2.823-6.304-6.304-6.304v12.608
					C10.481,13.304,13.305,10.481,13.305,7"/>
			</g>
		</g>
		<path clip-path="url(#SVGID_4_)" fill="#AAAAAA" d="M7.001,14C3.141,14,0,10.859,0,7C0,3.141,3.141,0,7.001,0
			C10.859,0,14,3.141,14,7C14,10.859,10.859,14,7.001,14 M7.001,1.392C3.908,1.392,1.392,3.906,1.392,7s2.516,5.609,5.609,5.609
			c3.093,0,5.607-2.516,5.607-5.609S10.094,1.392,7.001,1.392"/>
		<path clip-path="url(#SVGID_4_)" fill="#AAAAAA" d="M7.001,10.948c-0.385,0-0.696-0.312-0.696-0.696V6.999
			c0-0.384,0.311-0.695,0.696-0.695c0.385,0,0.695,0.311,0.695,0.695v3.253C7.696,10.637,7.386,10.948,7.001,10.948"/>
	</g>
</g>
</svg>
