<svg xmlns="http://www.w3.org/2000/svg" xmlns:xlink="http://www.w3.org/1999/xlink" width="14" height="14" viewBox="0 0 10.062 10.062"><defs><path id="a" d="M0 0h10.062v10.062H0z"/></defs><clipPath id="b"><use xlink:href="#a" overflow="visible"/></clipPath><g clip-path="url(#b)"><defs><path id="c" d="M0 0h10.062v10.063H0z"/></defs><clipPath id="d"><use xlink:href="#c" overflow="visible"/></clipPath><g opacity=".2" clip-path="url(#d)"><defs><path id="e" d="M.5.5h9.062v9.062H.5z"/></defs><clipPath id="f"><use xlink:href="#e" overflow="visible"/></clipPath><path clip-path="url(#f)" fill="#AAA" d="M5.031.5v4.531H.5A4.53 4.53 0 1 0 5.031.5"/></g><path clip-path="url(#d)" fill="#AAA" d="M5.03 10.063A5.037 5.037 0 0 1 0 5.031 5.037 5.037 0 0 1 5.03 0a5.037 5.037 0 0 1 5.031 5.031 5.036 5.036 0 0 1-5.031 5.032M5.03 1A4.035 4.035 0 0 0 1 5.031a4.036 4.036 0 0 0 4.03 4.033 4.037 4.037 0 0 0 4.031-4.033A4.035 4.035 0 0 0 5.03 1"/><path clip-path="url(#d)" fill="#AAA" d="M5.03 5.531H2.693a.5.5 0 0 1 0-1H5.03a.5.5 0 0 1 0 1"/></g></svg>