<svg xmlns="http://www.w3.org/2000/svg" width="20.979" height="20.979" viewBox="0 0 611.979 611.979"><path d="M356.781 305.982L601.453 61.311c14.033-14.033 14.033-36.771 0-50.774-14.004-14.033-36.741-14.033-50.774 0L306.007 255.208 61.277 10.536c-14.004-14.033-36.771-14.033-50.774 0-14.004 14.004-14.004 36.742 0 50.774l244.701 244.672L10.503 550.684c-14.004 14.004-14.004 36.771 0 50.774 7.016 7.017 16.216 10.51 25.387 10.51 9.2 0 18.371-3.493 25.387-10.51l244.701-244.701 244.671 244.701c7.017 7.017 16.217 10.51 25.388 10.51 9.199 0 18.399-3.493 25.387-10.51 14.033-14.033 14.033-36.771 0-50.774L356.781 305.982z" fill="gray"/></svg>