<svg xmlns="http://www.w3.org/2000/svg" width="128.014" height="164.01" viewBox="0 0 128.014 164.01"><path fill="#E5E5E5" d="M110.265 114.162c-10.57-1.751-25.047-11.692-25.047-16.007V87.252c0-4.064 5.672-11.672 8.088-18.679.227-.661 1.688.1 3.102-1.562 2.663-3.183 3.057-8.029 3.665-10.23.97-3.464-3.366-3.604-3.366-3.604s3.237-18.179.367-29.652C93.182 7.888 72.294 0 64.119 0c-8.181 0-29.043 7.888-32.945 23.525-2.864 11.473.428 29.652.428 29.652s-4.175.141-3.215 3.604c.614 2.202 1.307 7.047 3.985 10.23 1.404 1.662 2.256.901 2.483 1.562 2.41 7.007 8.082 14.615 8.082 18.679v10.902c0 4.314-14.482 14.256-25.052 16.007C4.31 116.405-2.4 125.504.78 148.198c1.595 11.333 32.434 16.208 62.994 15.788 30.548.42 61.857-4.455 63.447-15.788 3.19-22.694-3.382-31.793-16.956-34.036z"/></svg>