<svg xmlns="http://www.w3.org/2000/svg" xmlns:xlink="http://www.w3.org/1999/xlink" width="14" height="14" viewBox="0 0 14 14"><defs><path id="a" d="M0 0h14v14H0z"/></defs><clipPath id="b"><use xlink:href="#a" overflow="visible"/></clipPath><g clip-path="url(#b)"><defs><path id="c" d="M0 0h14v14H0z"/></defs><clipPath id="d"><use xlink:href="#c" overflow="visible"/></clipPath><g opacity=".2" clip-path="url(#d)"><defs><path id="e" d="M7 .695h6.304V7H7z"/></defs><clipPath id="f"><use xlink:href="#e" overflow="visible"/></clipPath><path clip-path="url(#f)" fill="#AAA" d="M7 .695V7h6.304A6.306 6.306 0 0 0 7 .695"/></g><path clip-path="url(#d)" fill="#AAA" d="M7 14c-3.86 0-7-3.141-7-7s3.14-7 7-7 7 3.14 7 6.999C14 10.859 10.859 14 7 14M7 1.392C3.906 1.392 1.391 3.906 1.391 7S3.906 12.608 7 12.608 12.608 10.093 12.608 7 10.093 1.392 7 1.392"/><path clip-path="url(#d)" fill="#AAA" d="M10.252 7.695H7a.696.696 0 1 1 0-1.391h3.252a.694.694 0 1 1 0 1.391"/></g></svg>