<svg xmlns="http://www.w3.org/2000/svg" width="12.011" height="15.993" viewBox="0 0 12.011 15.993"><path fill="#AAA" d="M6.005 15.993a.77.77 0 0 1-.643-.337L.798 8.792C.298 7.935 0 6.782 0 5.747 0 2.578 2.694 0 6.005 0c3.312 0 6.006 2.578 6.006 5.747 0 1.035-.298 2.188-.775 3.009l-4.587 6.9a.769.769 0 0 1-.644.337zm0-14.535c-2.47 0-4.48 1.924-4.48 4.288 0 .777.233 1.702.582 2.3l3.898 5.859 3.922-5.896c.326-.561.561-1.485.561-2.263-.001-2.364-2.012-4.288-4.483-4.288zm0 6.75c-1.418 0-2.573-1.105-2.573-2.462 0-1.357 1.155-2.461 2.573-2.461 1.419 0 2.574 1.104 2.574 2.461 0 1.358-1.155 2.462-2.574 2.462zm0-3.464c-.578 0-1.049.45-1.049 1.003 0 .554.471 1.004 1.049 1.004.58 0 1.05-.45 1.05-1.004 0-.553-.47-1.003-1.05-1.003z"/></svg>