<svg xmlns="http://www.w3.org/2000/svg" width="17.993" height="14.001" viewBox="0 0 17.993 14.001"><path fill="#6e6e6e" d="M16.052 0H1.94C.87 0 0 .882 0 1.966v10.071c0 1.084.87 1.965 1.94 1.965h14.112c1.07 0 1.941-.881 1.941-1.965V1.966C17.993.882 17.122 0 16.052 0zm-3.643 7.299l4.475-4.271v8.652l-4.475-4.381zM1.94 1.124h14.112c.32 0 .591.19.73.459L9.915 8.142c-.132.097-.582.373-.919.373-.335 0-.787-.276-.866-.328L1.211 1.583a.823.823 0 0 1 .729-.459zm-.832 10.557V3.028l4.477 4.268-4.477 4.385zm.832 1.197a.793.793 0 0 1-.363-.094l4.816-4.717 1.028.979c.081.062.814.591 1.574.591.761 0 1.494-.53 1.626-.633l.979-.936 4.814 4.715a.783.783 0 0 1-.363.094H1.94z"/></svg>