<svg xmlns="http://www.w3.org/2000/svg" width="17.999" height="17.028" viewBox="0 0 12.999 17.028"><path fill="#ABABAB" d="M12.481 6.894a1.7 1.7 0 0 0-1.252-.538h-.324V4.583c0-1.25-.436-2.337-1.297-3.232C8.747.455 7.702 0 6.499 0S4.251.455 3.391 1.351c-.86.894-1.297 1.981-1.297 3.232v1.773H1.77c-.481 0-.915.186-1.252.538S0 7.696 0 8.196v6.992c0 .5.179.951.517 1.303s.771.537 1.252.537h9.459c.481 0 .914-.186 1.252-.537s.518-.803.518-1.303V8.196c.001-.5-.179-.95-.517-1.302zM3.395 4.583c0-.891.3-1.636.916-2.275.616-.643 1.333-.955 2.188-.955.856 0 1.572.312 2.189.955.616.641.916 1.385.916 2.275v1.773H3.395V4.583zm8.303 10.605c0 .145-.041.246-.137.346s-.192.141-.332.141H1.77a.42.42 0 0 1-.333-.141.455.455 0 0 1-.136-.346V8.196c0-.143.041-.246.136-.346a.422.422 0 0 1 .333-.14h9.459c.14 0 .236.041.332.141s.137.203.137.346v6.991zM7.601 9.993c0-.633-.494-1.146-1.102-1.146s-1.102.513-1.102 1.146c0 .41.217.752.527.955L5.25 14.45h2.499l-.675-3.502a1.14 1.14 0 0 0 .527-.955z"/></svg>