<svg xmlns="http://www.w3.org/2000/svg" preserveAspectRatio="xMidYMid" width="18" height="18" viewBox="0 0 18 18"><defs><style>.cls-1{fill:#999;fill-rule:evenodd}</style></defs><path d="M17.449 4.207l-1.16 1.163a.637.637 0 0 1-.904 0l-2.797-2.806a.64.64 0 0 1 0-.907l1.16-1.165c.682-.684 1.879-.682 2.564-.001l1.136 1.143a1.83 1.83 0 0 1 .001 2.573zm-.905-1.666L15.408 1.4a.55.55 0 0 0-.756 0l-.708.71 1.893 1.899.707-.709a.54.54 0 0 0 0-.759zM14.745 6.92l-8.758 8.79a.658.658 0 0 1-.201.137l-4.89 2.1a.638.638 0 0 1-.703-.137.646.646 0 0 1-.136-.706l2.094-4.908a.669.669 0 0 1 .136-.2l8.758-8.79a.635.635 0 0 1 .904 0l2.796 2.807a.644.644 0 0 1 0 .907zM1.862 16.136l2.553-1.097-1.46-1.466-1.093 2.563zm9.635-11.569l-7.854 7.882 1.892 1.9 7.854-7.882-1.892-1.9z" class="cls-1"/></svg>