<svg xmlns="http://www.w3.org/2000/svg" width="20" height="20" viewBox="0 0 612 612"><path d="M382.5 0C255.759 0 153 102.759 153 229.5c0 53.034 18.149 101.707 48.367 140.568L8.415 563.021A28.586 28.586 0 0 0 0 583.312a28.621 28.621 0 0 0 8.415 20.292C14 609.208 21.343 612 28.688 612s14.688-2.792 20.272-8.396l192.971-192.972C280.793 440.851 329.467 459 382.5 459 509.241 459 612 356.241 612 229.5S509.241 0 382.5 0zm0 401.625c-94.917 0-172.125-77.208-172.125-172.125S287.583 57.375 382.5 57.375 554.625 134.583 554.625 229.5 477.417 401.625 382.5 401.625z" fill="#ff4d4d"/></svg>