<svg xmlns="http://www.w3.org/2000/svg" width="322.101" height="261.839" viewBox="0 0 322.101 261.839"><path fill="#999" stroke="#999" stroke-width="4" stroke-miterlimit="10" d="M9.373 4.141s22.09-4.817 46.508 0c0 0-15.057 106.57 1.203 174.412 5.64 23.532 16.563 39.336 33.009 39.355 0 0 18.555 1.273 27.384-21.281 6.037-15.431 7.768-32.784 7.607-110.999 0 0 16.703-4.47 38.936 0 0 0-1.152 67.587 4.878 102.03 5.222 29.825 22.406 32.284 34.273 32.164 0 0 15.176-.12 23.176-19.339 6.151-14.783 12.964-41.77 10.882-92.759-.08-2.074.505-4.284 4.638-4.337 0 0 28.274 2.967 73.474-18.814 0 0 2.538-.128 3.299 3.908 1.105 5.85 1.922 7.932 1.169 16.677-.433 4.921-1.098 12.777-9.265 22.167-9.17 10.553-27.54 11.013-27.621 14.512-.984 45.458-18.786 117.986-79.951 117.938 0 0-43.683.26-59.65-44.68 0 0-10.685 35.705-50.733 43.693-.001 0-121.21 31.822-83.216-254.647z"/></svg>