<?xml version="1.0" encoding="utf-8"?>
<!-- Generator: Adobe Illustrator 16.0.0, SVG Export Plug-In . SVG Version: 6.00 Build 0)  -->
<!DOCTYPE svg PUBLIC "-//W3C//DTD SVG 1.1//EN" "http://www.w3.org/Graphics/SVG/1.1/DTD/svg11.dtd">
<svg version="1.1" id="Layer_1" xmlns="http://www.w3.org/2000/svg" xmlns:xlink="http://www.w3.org/1999/xlink" x="0px" y="0px"
	 width="128.014px" height="164.01px" viewBox="0 0 128.014 164.01" enable-background="new 0 0 128.014 164.01"
	 xml:space="preserve">
<path fill="#E5E5E5" d="M110.265,114.162c-10.57-1.751-25.047-11.692-25.047-16.007V87.252c0-4.064,5.672-11.672,8.088-18.679
	c0.227-0.661,1.688,0.1,3.102-1.562c2.663-3.183,3.057-8.029,3.665-10.23c0.97-3.464-3.366-3.604-3.366-3.604
	s3.237-18.179,0.367-29.652C93.182,7.888,72.294,0,64.119,0c-8.181,0-29.043,7.888-32.945,23.525
	c-2.864,11.473,0.428,29.652,0.428,29.652s-4.175,0.141-3.215,3.604c0.614,2.202,1.307,7.047,3.985,10.23
	c1.404,1.662,2.256,0.901,2.483,1.562c2.41,7.007,8.082,14.615,8.082,18.679v10.902c0,4.314-14.482,14.256-25.052,16.007
	C4.31,116.405-2.4,125.504,0.78,148.198c1.595,11.333,32.434,16.208,62.994,15.788c30.548,0.42,61.857-4.455,63.447-15.788
	C130.411,125.504,123.839,116.405,110.265,114.162z"/>
</svg>
