<?xml version="1.0" encoding="utf-8"?>
<!-- Generator: Adobe Illustrator 16.0.0, SVG Export Plug-In . SVG Version: 6.00 Build 0)  -->
<!DOCTYPE svg PUBLIC "-//W3C//DTD SVG 1.1//EN" "http://www.w3.org/Graphics/SVG/1.1/DTD/svg11.dtd">
<svg version="1.1" id="Layer_1" xmlns="http://www.w3.org/2000/svg" xmlns:xlink="http://www.w3.org/1999/xlink" x="0px" y="0px"
	 width="200.701px" height="137.636px" viewBox="-28.617 -91.45 79.701 54.636" enable-background="new -28.617 -91.45 79.701 54.636"
	 xml:space="preserve">
<g>
	<path fill="#D5D5D5" d="M17.103-69.908c-0.953-2.2-3.119-3.622-5.517-3.622c-0.822,0-1.624,0.167-2.385,0.496
		c-0.857,0.371-1.579,0.924-2.151,1.588l-35.17,5.475c-0.32,0.051-0.539,0.35-0.49,0.671c0.046,0.289,0.295,0.496,0.58,0.496
		c0.031,0,0.06-0.002,0.091-0.007l34.123-5.312c-0.236,0.49-0.408,1.009-0.505,1.546l-16.588,6.519
		c-0.302,0.118-0.451,0.459-0.333,0.761c0.091,0.23,0.312,0.372,0.547,0.372c0.071,0,0.144-0.013,0.215-0.041l16.073-6.315
		c0.028,0.719,0.179,1.446,0.484,2.146c0.288,0.664,0.688,1.256,1.17,1.761l-28.167,25.534c-0.24,0.219-0.258,0.589-0.04,0.83
		c0.115,0.127,0.275,0.193,0.435,0.193c0.141,0,0.282-0.05,0.394-0.152L8.144-62.6c0.99,0.693,2.186,1.091,3.447,1.091
		c0.449,0,0.893-0.056,1.328-0.154L-2.78-43.653c-0.213,0.245-0.188,0.614,0.056,0.828c0.112,0.097,0.25,0.145,0.386,0.145
		c0.165,0,0.326-0.068,0.443-0.201l17.809-20.43c0.024-0.029,0.035-0.061,0.052-0.091c0.514-0.546,0.927-1.188,1.21-1.905
		C17.767-66.803,17.741-68.436,17.103-69.908z M7.153-65.598c-0.583-1.351-0.5-2.823,0.103-4.051
		c0.127,0.482,0.289,0.955,0.489,1.415c0.444,1.024,1.056,1.962,1.804,2.777l-1.424,1.291C7.726-64.577,7.389-65.054,7.153-65.598z
		 M9.045-63.418l1.348-1.223c0.18,0.155,0.365,0.305,0.557,0.447c0.692,0.511,1.445,0.917,2.238,1.231
		c-0.516,0.182-1.049,0.277-1.596,0.277C10.669-62.685,9.794-62.952,9.045-63.418z M16.084-65.742
		c-0.317,0.806-0.838,1.491-1.498,2.013c-1.063-0.286-2.053-0.753-2.938-1.408c-0.129-0.096-0.253-0.197-0.376-0.299l1.341-1.217
		c0.241-0.218,0.258-0.589,0.041-0.829c-0.218-0.241-0.589-0.258-0.829-0.041l-1.408,1.277c-0.663-0.72-1.204-1.548-1.598-2.456
		c-0.245-0.563-0.427-1.148-0.548-1.745l1.731-0.269c0.32-0.05,0.541-0.351,0.491-0.67c-0.051-0.321-0.353-0.542-0.671-0.49
		l-0.461,0.071c0.102-0.052,0.201-0.105,0.307-0.151c0.613-0.265,1.257-0.4,1.917-0.4c1.931,0,3.673,1.144,4.44,2.915
		C16.539-68.256,16.56-66.942,16.084-65.742z"/>
	<path fill="#D5D5D5" d="M15.059-68.597c-0.32,0.05-0.538,0.351-0.489,0.671c0.029,0.186,0.042,0.376,0.036,0.566
		c-0.011,0.324,0.243,0.594,0.569,0.604c0.005,0,0.011,0,0.018,0c0.314,0,0.577-0.251,0.586-0.569
		c0.009-0.263-0.009-0.527-0.049-0.784C15.68-68.428,15.386-68.648,15.059-68.597z"/>
	<path fill="#D5D5D5" d="M15.031-69.865c-0.713-1.036-1.843-1.698-3.099-1.818c-0.33-0.032-0.609,0.207-0.64,0.529
		c-0.031,0.323,0.206,0.609,0.529,0.639c0.909,0.086,1.727,0.566,2.244,1.315c0.112,0.164,0.297,0.254,0.483,0.254
		c0.115,0,0.232-0.034,0.333-0.105C15.147-69.233,15.214-69.598,15.031-69.865z"/>
</g>
<line fill="#D5D5D5" stroke="#D5D5D5" stroke-miterlimit="10" x1="32.745" y1="-78.922" x2="34.412" y2="-76.422"/>
<line fill="none" stroke="#D5D5D5" stroke-miterlimit="10" x1="32.156" y1="-77.187" x2="35" y2="-78.157"/>
<line fill="#D5D5D5" stroke="#D5D5D5" stroke-miterlimit="10" x1="14.542" y1="-86.173" x2="16.209" y2="-83.672"/>
<line fill="none" stroke="#D5D5D5" stroke-miterlimit="10" x1="13.954" y1="-84.438" x2="16.798" y2="-85.408"/>
<line fill="#D5D5D5" stroke="#D5D5D5" stroke-miterlimit="10" x1="28.495" y1="-91.172" x2="30.162" y2="-88.672"/>
<line fill="none" stroke="#D5D5D5" stroke-miterlimit="10" x1="27.907" y1="-89.437" x2="30.75" y2="-90.407"/>
<line fill="#D5D5D5" stroke="#D5D5D5" stroke-miterlimit="10" x1="39.166" y1="-57.672" x2="40.834" y2="-55.172"/>
<line fill="none" stroke="#D5D5D5" stroke-miterlimit="10" x1="38.578" y1="-55.938" x2="41.422" y2="-56.907"/>
<line fill="#D5D5D5" stroke="#D5D5D5" stroke-miterlimit="10" x1="15.964" y1="-43.922" x2="17.631" y2="-41.422"/>
<line fill="none" stroke="#D5D5D5" stroke-miterlimit="10" x1="15.376" y1="-42.188" x2="18.22" y2="-43.157"/>
<line fill="#D5D5D5" stroke="#D5D5D5" stroke-miterlimit="10" x1="48.666" y1="-77.672" x2="50.334" y2="-75.172"/>
<line fill="none" stroke="#D5D5D5" stroke-miterlimit="10" x1="48.078" y1="-75.938" x2="50.922" y2="-76.907"/>
<line fill="#D5D5D5" stroke="#D5D5D5" stroke-miterlimit="10" x1="-7.763" y1="-85.408" x2="-6.096" y2="-82.907"/>
<line fill="none" stroke="#D5D5D5" stroke-miterlimit="10" x1="-8.352" y1="-83.672" x2="-5.508" y2="-84.643"/>
<line fill="#D5D5D5" stroke="#D5D5D5" stroke-miterlimit="10" x1="29.329" y1="-63.529" x2="30.996" y2="-61.028"/>
<line fill="none" stroke="#D5D5D5" stroke-miterlimit="10" x1="28.74" y1="-61.793" x2="31.584" y2="-62.764"/>
<line fill="#D5D5D5" stroke="#D5D5D5" stroke-miterlimit="10" x1="42.012" y1="-87.423" x2="43.678" y2="-84.923"/>
<line fill="none" stroke="#D5D5D5" stroke-miterlimit="10" x1="41.422" y1="-85.688" x2="44.266" y2="-86.658"/>
</svg>
