<?xml version="1.0" encoding="utf-8"?>
<!-- Generator: Adobe Illustrator 16.0.0, SVG Export Plug-In . SVG Version: 6.00 Build 0)  -->
<!DOCTYPE svg PUBLIC "-//W3C//DTD SVG 1.1//EN" "http://www.w3.org/Graphics/SVG/1.1/DTD/svg11.dtd">
<svg version="1.1" id="Layer_1" xmlns="http://www.w3.org/2000/svg" xmlns:xlink="http://www.w3.org/1999/xlink" x="0px" y="0px"
	 width="14px" height="14px" viewBox="0 0 14 14" enable-background="new 0 0 14 14" xml:space="preserve">
<g>
	<defs>
		<rect id="SVGID_1_" width="14" height="14"/>
	</defs>
	<clipPath id="SVGID_2_">
		<use xlink:href="#SVGID_1_"  overflow="visible"/>
	</clipPath>
	<g clip-path="url(#SVGID_2_)">
		<defs>
			<rect id="SVGID_3_" width="14" height="14"/>
		</defs>
		<clipPath id="SVGID_4_">
			<use xlink:href="#SVGID_3_"  overflow="visible"/>
		</clipPath>
		<g opacity="0.2" clip-path="url(#SVGID_4_)">
			<g>
				<defs>
					<rect id="SVGID_5_" x="7" y="0.695" width="6.304" height="6.305"/>
				</defs>
				<clipPath id="SVGID_6_">
					<use xlink:href="#SVGID_5_"  overflow="visible"/>
				</clipPath>
				<path clip-path="url(#SVGID_6_)" fill="#AAAAAA" d="M7,0.695V7h6.304C13.304,3.519,10.481,0.695,7,0.695"/>
			</g>
		</g>
		<path clip-path="url(#SVGID_4_)" fill="#AAAAAA" d="M7,14C3.14,14,0,10.859,0,7C0,3.141,3.14,0,7,0c3.86,0,7,3.14,7,6.999
			C14,10.859,10.859,14,7,14 M7,1.392C3.906,1.392,1.391,3.906,1.391,7S3.906,12.608,7,12.608S12.608,10.093,12.608,7
			S10.093,1.392,7,1.392"/>
		<path clip-path="url(#SVGID_4_)" fill="#AAAAAA" d="M10.252,7.695H7c-0.385,0-0.696-0.312-0.696-0.696
			c0-0.384,0.311-0.695,0.696-0.695h3.252c0.386,0,0.696,0.311,0.696,0.695C10.948,7.384,10.638,7.695,10.252,7.695"/>
	</g>
</g>
</svg>
