<?xml version="1.0" encoding="utf-8"?>
<!-- Generator: Adobe Illustrator 16.0.0, SVG Export Plug-In . SVG Version: 6.00 Build 0)  -->
<!DOCTYPE svg PUBLIC "-//W3C//DTD SVG 1.1//EN" "http://www.w3.org/Graphics/SVG/1.1/DTD/svg11.dtd">
<svg version="1.1" id="Layer_1" xmlns="http://www.w3.org/2000/svg" xmlns:xlink="http://www.w3.org/1999/xlink" x="0px" y="0px"
	 width="17.993px" height="17.993px" viewBox="0 0 12.976 16.007" enable-background="new 0 0 12.976 16.007" xml:space="preserve">
<path fill="#ABABAB" d="M9.97,6.712c0.47-0.703,0.709-1.508,0.709-2.403c0-1.182-0.413-2.207-1.229-3.047
	C8.636,0.424,7.638,0,6.487,0C5.334,0,4.338,0.424,3.525,1.262C2.71,2.1,2.296,3.126,2.296,4.309c0,0.897,0.239,1.702,0.708,2.403
	C1.319,6.913,0,8.373,0,10.159v3.798c0,1.13,0.896,2.051,1.995,2.051h8.985c1.1,0,1.996-0.921,1.996-2.051v-3.798
	C12.976,8.372,11.657,6.912,9.97,6.712z M4.369,2.129c0.59-0.607,1.283-0.902,2.118-0.902c0.836,0,1.528,0.294,2.12,0.902
	c0.591,0.609,0.879,1.322,0.879,2.18S9.198,5.88,8.607,6.488C8.493,6.604,8.372,6.699,8.25,6.793c0,0.001-0.002,0-0.003,0.001
	C8.125,6.888,7.996,6.968,7.865,7.041C7.849,7.049,7.834,7.058,7.82,7.065C7.702,7.127,7.58,7.178,7.457,7.223
	C7.398,7.243,7.34,7.26,7.28,7.276C7.193,7.301,7.106,7.325,7.018,7.342C6.846,7.371,6.671,7.391,6.487,7.391
	c-0.184,0-0.358-0.021-0.529-0.049C5.869,7.325,5.781,7.301,5.693,7.276C5.635,7.26,5.577,7.243,5.521,7.223
	C5.396,7.178,5.273,7.127,5.154,7.065C5.141,7.058,5.128,7.05,5.116,7.044C4.983,6.971,4.854,6.89,4.729,6.794
	C4.728,6.793,4.726,6.793,4.725,6.792C4.604,6.699,4.483,6.604,4.369,6.488C3.778,5.88,3.49,5.167,3.49,4.309
	S3.778,2.737,4.369,2.129z M11.782,13.957c0,0.454-0.359,0.823-0.802,0.823H1.995c-0.442,0-0.801-0.369-0.801-0.823v-3.798
	c0-1.246,0.986-2.259,2.198-2.259h0.77c0.161,0.113,0.333,0.197,0.505,0.283c0.021,0.011,0.041,0.024,0.062,0.034
	c0.145,0.069,0.295,0.125,0.447,0.175C5.253,8.418,5.331,8.442,5.41,8.464c0.13,0.035,0.261,0.068,0.396,0.089
	C5.987,8.584,6.17,8.6,6.353,8.606c0.046,0.002,0.088,0.013,0.134,0.013c0.041,0,0.078-0.011,0.119-0.011
	c0.19-0.006,0.379-0.023,0.567-0.055c0.133-0.021,0.261-0.054,0.389-0.088c0.083-0.023,0.165-0.048,0.246-0.076
	c0.148-0.05,0.296-0.104,0.437-0.171c0.031-0.016,0.061-0.036,0.092-0.052c0.162-0.083,0.326-0.161,0.478-0.267h0.771
	c1.212,0,2.198,1.013,2.198,2.259V13.957z"/>
</svg>
