<?xml version="1.0" encoding="utf-8"?>
<!-- Generator: Adobe Illustrator 16.0.0, SVG Export Plug-In . SVG Version: 6.00 Build 0)  -->
<!DOCTYPE svg PUBLIC "-//W3C//DTD SVG 1.1//EN" "http://www.w3.org/Graphics/SVG/1.1/DTD/svg11.dtd">
<svg version="1.1" id="Layer_1" xmlns="http://www.w3.org/2000/svg" xmlns:xlink="http://www.w3.org/1999/xlink" x="0px" y="0px"
	 width="14px" height="14px" viewBox="0 0 14 14" enable-background="new 0 0 14 14" xml:space="preserve">
<g>
	<defs>
		<rect id="SVGID_1_" width="14" height="14"/>
	</defs>
	<clipPath id="SVGID_2_">
		<use xlink:href="#SVGID_1_"  overflow="visible"/>
	</clipPath>
	<path clip-path="url(#SVGID_2_)" fill="#AAAAAA" d="M7,14C3.14,14,0,10.859,0,7C0,3.141,3.14,0,7,0c3.86,0,7,3.14,7,6.999
		C14,10.859,10.859,14,7,14 M7,1.392C3.906,1.392,1.391,3.906,1.391,7S3.906,12.608,7,12.608S12.608,10.093,12.608,7
		S10.093,1.392,7,1.392"/>
	<path clip-path="url(#SVGID_2_)" fill="#AAAAAA" d="M9.292,6.417L6.509,4.584C6.293,4.444,6.021,4.433,5.796,4.554
		C5.57,4.676,5.43,4.911,5.43,5.167v3.667c0,0.255,0.14,0.489,0.366,0.611c0.103,0.057,0.217,0.083,0.33,0.083
		c0.133,0,0.266-0.038,0.383-0.113l2.783-1.833C9.485,7.452,9.604,7.232,9.604,7C9.604,6.766,9.485,6.547,9.292,6.417"/>
</g>
</svg>
