<?xml version="1.0" encoding="utf-8"?>
<!-- Generator: Adobe Illustrator 16.0.0, SVG Export Plug-In . SVG Version: 6.00 Build 0)  -->
<!DOCTYPE svg PUBLIC "-//W3C//DTD SVG 1.1//EN" "http://www.w3.org/Graphics/SVG/1.1/DTD/svg11.dtd">
<svg version="1.1" id="Layer_1" xmlns="http://www.w3.org/2000/svg" xmlns:xlink="http://www.w3.org/1999/xlink" x="0px" y="0px"
	 width="12.011px" height="15.993px" viewBox="0 0 12.011 15.993" enable-background="new 0 0 12.011 15.993" xml:space="preserve">
<path fill="#AAAAAA" d="M6.005,15.993c-0.26,0-0.503-0.126-0.643-0.337L0.798,8.792C0.298,7.935,0,6.782,0,5.747
	C0,2.578,2.694,0,6.005,0c3.312,0,6.006,2.578,6.006,5.747c0,1.035-0.298,2.188-0.775,3.009l-4.587,6.9
	C6.509,15.867,6.267,15.993,6.005,15.993z M6.005,1.458c-2.47,0-4.48,1.924-4.48,4.288c0,0.777,0.233,1.702,0.582,2.3l3.898,5.859
	l3.922-5.896c0.326-0.561,0.561-1.485,0.561-2.263C10.487,3.382,8.476,1.458,6.005,1.458z M6.005,8.208
	c-1.418,0-2.573-1.105-2.573-2.462c0-1.357,1.155-2.461,2.573-2.461c1.419,0,2.574,1.104,2.574,2.461
	C8.579,7.104,7.424,8.208,6.005,8.208z M6.005,4.744c-0.578,0-1.049,0.45-1.049,1.003c0,0.554,0.471,1.004,1.049,1.004
	c0.58,0,1.05-0.45,1.05-1.004C7.055,5.194,6.585,4.744,6.005,4.744z"/>
</svg>
