<?xml version="1.0" encoding="utf-8"?>
<!-- Generator: Adobe Illustrator 16.0.0, SVG Export Plug-In . SVG Version: 6.00 Build 0)  -->
<!DOCTYPE svg PUBLIC "-//W3C//DTD SVG 1.1//EN" "http://www.w3.org/Graphics/SVG/1.1/DTD/svg11.dtd">
<svg version="1.1" id="Layer_1" xmlns="http://www.w3.org/2000/svg" xmlns:xlink="http://www.w3.org/1999/xlink" x="0px" y="0px"
	 width="17.993px" height="14.001px" viewBox="0 0 17.993 14.001" enable-background="new 0 0 17.993 14.001" xml:space="preserve">
<path fill="#6e6e6e" d="M16.052,0H1.94C0.87,0,0,0.882,0,1.966v10.071c0,1.084,0.87,1.965,1.94,1.965h14.112
	c1.07,0,1.941-0.881,1.941-1.965V1.966C17.993,0.882,17.122,0,16.052,0z M12.409,7.299l4.475-4.271v8.652L12.409,7.299z M1.94,1.124
	h14.112c0.32,0,0.591,0.19,0.73,0.459L9.915,8.142C9.783,8.239,9.333,8.515,8.996,8.515c-0.335,0-0.787-0.276-0.866-0.328
	L1.211,1.583C1.35,1.313,1.621,1.124,1.94,1.124z M1.108,11.681V3.028l4.477,4.268L1.108,11.681z M1.94,12.878
	c-0.131,0-0.251-0.037-0.363-0.094l4.816-4.717l1.028,0.979c0.081,0.062,0.814,0.591,1.574,0.591c0.761,0,1.494-0.53,1.626-0.633
	l0.979-0.936l4.814,4.715c-0.111,0.057-0.23,0.094-0.363,0.094H1.94z"/>
</svg>
