<?xml version="1.0" encoding="utf-8"?>
<!-- Generator: Adobe Illustrator 16.0.0, SVG Export Plug-In . SVG Version: 6.00 Build 0)  -->
<!DOCTYPE svg PUBLIC "-//W3C//DTD SVG 1.1//EN" "http://www.w3.org/Graphics/SVG/1.1/DTD/svg11.dtd">
<svg version="1.1" id="Layer_1" xmlns="http://www.w3.org/2000/svg" xmlns:xlink="http://www.w3.org/1999/xlink" x="0px" y="0px"
	 width="17.999px" height="17.028px" viewBox="0 0 12.999 17.028" enable-background="new 0 0 12.999 17.028" xml:space="preserve">
<g>
	<g>
		<path fill="#ABABAB" d="M12.481,6.894c-0.338-0.352-0.771-0.538-1.252-0.538h-0.324V4.583c0-1.25-0.436-2.337-1.297-3.232
			C8.747,0.455,7.702,0,6.499,0S4.251,0.455,3.391,1.351c-0.86,0.894-1.297,1.981-1.297,3.232v1.773H1.77
			c-0.481,0-0.915,0.186-1.252,0.538S0,7.696,0,8.196v6.992c0,0.5,0.179,0.951,0.517,1.303s0.771,0.537,1.252,0.537h9.459
			c0.481,0,0.914-0.186,1.252-0.537s0.518-0.803,0.518-1.303V8.196C12.999,7.696,12.819,7.246,12.481,6.894z M3.395,4.583
			c0-0.891,0.3-1.636,0.916-2.275c0.616-0.643,1.333-0.955,2.188-0.955c0.856,0,1.572,0.312,2.189,0.955
			c0.616,0.641,0.916,1.385,0.916,2.275v1.773H3.395V4.583z M11.698,15.188c0,0.145-0.041,0.246-0.137,0.346
			s-0.192,0.141-0.332,0.141H1.77c-0.14,0-0.236-0.041-0.333-0.141c-0.096-0.1-0.136-0.201-0.136-0.346V8.196
			c0-0.143,0.041-0.246,0.136-0.346C1.533,7.751,1.63,7.71,1.77,7.71h9.459c0.14,0,0.236,0.041,0.332,0.141s0.137,0.203,0.137,0.346
			V15.188z M7.601,9.993c0-0.633-0.494-1.146-1.102-1.146S5.397,9.36,5.397,9.993c0,0.41,0.217,0.752,0.527,0.955L5.25,14.45h2.499
			l-0.675-3.502C7.383,10.745,7.601,10.403,7.601,9.993z"/>
	</g>
</g>
</svg>
