<svg xmlns="http://www.w3.org/2000/svg" xmlns:xlink="http://www.w3.org/1999/xlink" preserveAspectRatio="xMidYMid" width="18" height="18" viewBox="0 0 18 18">
  <defs>
    <style>
      .cls-1 {
        fill: white;
        fill-rule: evenodd;
      }
    </style>
  </defs>
  <path d="M17.449,4.207 L16.289,5.370 C16.164,5.495 16.001,5.558 15.837,5.558 C15.674,5.558 15.510,5.495 15.385,5.370 L12.588,2.564 C12.468,2.444 12.401,2.281 12.401,2.110 C12.401,1.940 12.468,1.777 12.588,1.657 L13.748,0.492 C14.430,-0.192 15.627,-0.190 16.312,0.491 L17.448,1.634 C18.153,2.342 18.154,3.496 17.449,4.207 ZM16.544,2.541 L15.408,1.400 C15.208,1.199 14.852,1.199 14.652,1.400 L13.944,2.110 L15.837,4.009 L16.544,3.300 C16.751,3.090 16.752,2.751 16.544,2.541 ZM14.745,6.920 L5.987,15.710 C5.929,15.768 5.861,15.814 5.786,15.847 L0.896,17.947 C0.815,17.982 0.730,17.998 0.645,17.998 C0.479,17.998 0.316,17.933 0.193,17.810 C0.009,17.625 -0.045,17.346 0.057,17.104 L2.151,12.196 C2.184,12.122 2.230,12.053 2.287,11.996 L11.045,3.206 C11.165,3.085 11.327,3.018 11.497,3.018 C11.667,3.018 11.829,3.085 11.949,3.206 L14.745,6.013 C14.994,6.264 14.994,6.669 14.745,6.920 ZM1.862,16.136 L4.415,15.039 L2.955,13.573 L1.862,16.136 ZM11.497,4.567 L3.643,12.449 L5.535,14.349 L13.389,6.467 L11.497,4.567 Z" class="cls-1"/>
</svg>
