<?xml version="1.0" encoding="utf-8"?>
<!-- Generator: Adobe Illustrator 16.0.0, SVG Export Plug-In . SVG Version: 6.00 Build 0)  -->
<!DOCTYPE svg PUBLIC "-//W3C//DTD SVG 1.1//EN" "http://www.w3.org/Graphics/SVG/1.1/DTD/svg11.dtd">
<svg version="1.1" id="Layer_1" xmlns="http://www.w3.org/2000/svg" xmlns:xlink="http://www.w3.org/1999/xlink" x="0px" y="0px"
	 width="60px" height="60px" viewBox="0 0 60 60" enable-background="new 0 0 60 60" xml:space="preserve">
<rect fill="#F9F9FA" width="60" height="60"/>
<rect x="4.915" y="24.688" fill="none" width="50.171" height="10.625"/>
<g enable-background="new    ">
	<path fill="#999999" stroke="#999999" stroke-width="0.2" stroke-miterlimit="10" d="M19.686,32.932v-7.496h0.503v7.496H19.686z"/>
	<path fill="#999999" stroke="#999999" stroke-width="0.2" stroke-miterlimit="10" d="M23.909,32.932H22.17v-7.496h1.811
		c2.423,0,3.97,1.512,3.97,3.694C27.951,31.553,26.439,32.932,23.909,32.932z M23.933,25.892h-1.259v6.584h1.259
		c2.051,0,3.502-1.021,3.502-3.298C27.435,27.199,26.128,25.892,23.933,25.892z"/>
	<path fill="#999999" stroke="#999999" stroke-width="0.2" stroke-miterlimit="10" d="M29.501,32.932v-7.496h4.293v0.456h-3.79v3.07
		h3.167v0.443h-3.167v3.07h3.79v0.457H29.501L29.501,32.932z"/>
	<path fill="#999999" stroke="#999999" stroke-width="0.2" stroke-miterlimit="10" d="M41.006,32.932H40.49l-0.875-2.339h-3.538
		l-0.876,2.339h-0.504l2.867-7.496h0.623L41.006,32.932z M37.863,25.88l-1.606,4.257h3.179L37.863,25.88z"/>
</g>
</svg>
