<?xml version="1.0" encoding="utf-8"?>
<!-- Generator: Adobe Illustrator 16.0.0, SVG Export Plug-In . SVG Version: 6.00 Build 0)  -->
<!DOCTYPE svg PUBLIC "-//W3C//DTD SVG 1.1//EN" "http://www.w3.org/Graphics/SVG/1.1/DTD/svg11.dtd">
<svg version="1.1" id="Layer_1" xmlns="http://www.w3.org/2000/svg" xmlns:xlink="http://www.w3.org/1999/xlink" x="0px" y="0px"
	 width="60px" height="60px" viewBox="0 0 60 60" enable-background="new 0 0 60 60" xml:space="preserve">
<rect fill="#F9F9FA" width="60" height="60"/>
<rect x="2.458" y="18.128" fill="none" width="55.085" height="27.744"/>
<g enable-background="new    ">
	<path d="M20.748,26.373v-7.496h0.504v7.028h3.79v0.468H20.748z"/>
	<path d="M26.292,26.373v-7.496h0.503v7.496H26.292z"/>
	<path d="M31.367,26.373h-0.601l-2.734-7.496h0.516l2.53,7.004l2.531-7.004h0.504L31.367,26.373z"/>
	<path d="M35.34,26.373v-7.496h4.294v0.456h-3.79v3.07h3.166v0.443h-3.166v3.07h3.79v0.456H35.34z"/>
</g>
<g enable-background="new    ">
	<path d="M10.206,37.966l-1.043,0.012v2.795H8.658v-7.496c0,0,1.499,0,1.679,0c1.895,0,2.866,0.888,2.866,2.255
		C13.204,37.126,12.052,37.942,10.206,37.966z M10.337,33.732c-0.18,0-1.175,0-1.175,0v3.79l1.043-0.012
		c1.559-0.024,2.471-0.588,2.471-1.968C12.676,34.416,11.812,33.732,10.337,33.732z"/>
	<path d="M15.162,40.772h-0.504v-7.496c0,0,1.715,0,1.775,0c1.871,0,2.687,0.84,2.687,2.123c0,1.127-0.875,1.799-1.799,2.051
		l2.135,3.322h-0.563l-2.027-3.227l-1.703,0.108V40.772z M16.613,37.15c1.007-0.036,1.991-0.672,1.991-1.739
		s-0.744-1.679-2.23-1.679c-0.06,0-1.211,0-1.211,0v3.466L16.613,37.15z"/>
	<path d="M23.944,40.893c-1.979,0-3.586-1.607-3.586-3.862c0-2.326,1.535-3.874,3.61-3.874c1.979,0,3.586,1.596,3.586,3.851
		C27.554,39.333,26.019,40.893,23.944,40.893z M23.932,33.601c-1.763,0-3.058,1.403-3.058,3.406s1.343,3.441,3.106,3.441
		c1.763,0,3.059-1.415,3.059-3.418S25.695,33.601,23.932,33.601z"/>
	<path d="M29.646,40.893c-0.684,0-1.319-0.24-1.691-0.468l0.108-0.492c0.492,0.3,1.043,0.516,1.607,0.516
		c1.116,0,1.715-0.707,1.715-2.015v-5.157h0.504v5.169C31.889,39.957,31.193,40.893,29.646,40.893z"/>
	<path d="M33.678,40.772v-7.496h4.294v0.456h-3.79v3.07h3.166v0.443h-3.166v3.07h3.79v0.456H33.678z"/>
	<path d="M44.667,34.188c-0.527-0.336-1.319-0.576-2.11-0.576c-1.631,0-2.938,1.211-2.938,3.431c0,2.11,1.175,3.394,2.962,3.394
		c0.815,0,1.571-0.252,2.075-0.611l0.12,0.468c-0.504,0.336-1.296,0.6-2.207,0.6c-2.135,0-3.466-1.487-3.466-3.85
		c0-2.375,1.463-3.887,3.478-3.887c0.972,0,1.764,0.312,2.243,0.6L44.667,34.188z"/>
	<path d="M48.737,33.744v7.028h-0.504v-7.028h-2.65v-0.468h5.805v0.468H48.737z"/>
</g>
</svg>
