<?xml version="1.0" encoding="utf-8"?>
<!-- Generator: Adobe Illustrator 16.0.0, SVG Export Plug-In . SVG Version: 6.00 Build 0)  -->
<!DOCTYPE svg PUBLIC "-//W3C//DTD SVG 1.1//EN" "http://www.w3.org/Graphics/SVG/1.1/DTD/svg11.dtd">
<svg version="1.1" id="Layer_1" xmlns="http://www.w3.org/2000/svg" xmlns:xlink="http://www.w3.org/1999/xlink" x="0px" y="0px"
	 width="60px" height="60px" viewBox="0 0 60 60" enable-background="new 0 0 60 60" xml:space="preserve">
<rect fill="#F9F9FA" width="60" height="60"/>
<rect x="2.458" y="19.128" fill="none" width="55.085" height="27.744"/>
<g enable-background="new    ">
	<path fill="#999999" stroke="#999999" stroke-width="0.2" stroke-miterlimit="10" d="M9.899,27.373H8.16v-7.496h1.811
		c2.423,0,3.97,1.512,3.97,3.694C13.941,25.994,12.43,27.373,9.899,27.373z M9.923,20.333H8.664v6.584h1.259
		c2.051,0,3.502-1.02,3.502-3.298C13.425,21.641,12.118,20.333,9.923,20.333z"/>
	<path fill="#999999" stroke="#999999" stroke-width="0.2" stroke-miterlimit="10" d="M15.996,27.373h-0.504v-7.496
		c0,0,1.715,0,1.775,0c1.871,0,2.687,0.84,2.687,2.123c0,1.127-0.875,1.799-1.799,2.051l2.135,3.322h-0.563L17.7,24.146
		l-1.703,0.108L15.996,27.373L15.996,27.373z M17.447,23.751c1.007-0.036,1.991-0.672,1.991-1.739c0-1.067-0.744-1.679-2.23-1.679
		c-0.06,0-1.211,0-1.211,0v3.466L17.447,23.751z"/>
	<path fill="#999999" stroke="#999999" stroke-width="0.2" stroke-miterlimit="10" d="M27.273,27.373h-0.516l-0.875-2.339h-3.538
		l-0.875,2.339h-0.504l2.867-7.496h0.624L27.273,27.373z M24.131,20.321l-1.607,4.257h3.178L24.131,20.321z"/>
	<path fill="#999999" stroke="#999999" stroke-width="0.2" stroke-miterlimit="10" d="M28.56,19.877h4.186v0.468h-3.682v3.166h3.058
		v0.456h-3.058v3.406H28.56V19.877z"/>
	<path fill="#999999" stroke="#999999" stroke-width="0.2" stroke-miterlimit="10" d="M36.742,20.345v7.028h-0.504v-7.028h-2.65
		v-0.468h5.807v0.468H36.742z"/>
	<path fill="#999999" stroke="#999999" stroke-width="0.2" stroke-miterlimit="10" d="M40.716,27.373v-7.496h4.294v0.456h-3.789
		v3.07h3.166v0.443h-3.166v3.07h3.789v0.456L40.716,27.373L40.716,27.373z"/>
	<path fill="#999999" stroke="#999999" stroke-width="0.2" stroke-miterlimit="10" d="M48.335,27.373h-1.739v-7.496h1.812
		c2.422,0,3.97,1.512,3.97,3.694C52.377,25.994,50.865,27.373,48.335,27.373z M48.357,20.333H47.1v6.584h1.26
		c2.051,0,3.502-1.02,3.502-3.298C51.861,21.641,50.555,20.333,48.357,20.333z"/>
</g>
<g enable-background="new    ">
	<path fill="#999999" stroke="#999999" stroke-width="0.2" stroke-miterlimit="10" d="M10.206,38.966l-1.043,0.013v2.795H8.658
		v-7.496c0,0,1.499,0,1.679,0c1.895,0,2.866,0.888,2.866,2.255C13.204,38.126,12.052,38.941,10.206,38.966z M10.337,34.732
		c-0.18,0-1.175,0-1.175,0v3.789l1.043-0.012c1.559-0.023,2.471-0.588,2.471-1.968C12.676,35.416,11.812,34.732,10.337,34.732z"/>
	<path fill="#999999" stroke="#999999" stroke-width="0.2" stroke-miterlimit="10" d="M15.162,41.771h-0.504v-7.496
		c0,0,1.715,0,1.775,0c1.871,0,2.687,0.841,2.687,2.123c0,1.127-0.875,1.8-1.799,2.052l2.135,3.321h-0.563l-2.027-3.227
		l-1.703,0.107L15.162,41.771L15.162,41.771z M16.613,38.15c1.007-0.036,1.991-0.672,1.991-1.739s-0.744-1.679-2.23-1.679
		c-0.06,0-1.211,0-1.211,0v3.466L16.613,38.15z"/>
	<path fill="#999999" stroke="#999999" stroke-width="0.2" stroke-miterlimit="10" d="M23.944,41.893
		c-1.979,0-3.586-1.606-3.586-3.861c0-2.326,1.535-3.874,3.61-3.874c1.979,0,3.586,1.596,3.586,3.851
		C27.554,40.333,26.019,41.893,23.944,41.893z M23.932,34.602c-1.763,0-3.058,1.402-3.058,3.405s1.343,3.441,3.106,3.441
		s3.059-1.415,3.059-3.419C27.039,36.027,25.695,34.602,23.932,34.602z"/>
	<path fill="#999999" stroke="#999999" stroke-width="0.2" stroke-miterlimit="10" d="M29.646,41.893
		c-0.684,0-1.319-0.24-1.691-0.468l0.108-0.491c0.492,0.299,1.043,0.516,1.607,0.516c1.116,0,1.715-0.707,1.715-2.016v-5.156h0.504
		v5.168C31.889,40.957,31.193,41.893,29.646,41.893z"/>
	<path fill="#999999" stroke="#999999" stroke-width="0.2" stroke-miterlimit="10" d="M33.678,41.771v-7.496h4.295v0.457h-3.791
		v3.069h3.166v0.443h-3.166v3.069h3.791v0.457H33.678L33.678,41.771z"/>
	<path fill="#999999" stroke="#999999" stroke-width="0.2" stroke-miterlimit="10" d="M44.667,35.188
		c-0.526-0.336-1.319-0.576-2.11-0.576c-1.631,0-2.938,1.212-2.938,3.432c0,2.109,1.175,3.395,2.962,3.395
		c0.815,0,1.571-0.252,2.075-0.611l0.119,0.468c-0.504,0.336-1.295,0.601-2.207,0.601c-2.135,0-3.465-1.487-3.465-3.851
		c0-2.375,1.463-3.887,3.478-3.887c0.972,0,1.765,0.312,2.243,0.6L44.667,35.188z"/>
	<path fill="#999999" stroke="#999999" stroke-width="0.2" stroke-miterlimit="10" d="M48.736,34.744v7.027h-0.504v-7.027h-2.649
		v-0.469h5.806v0.469H48.736z"/>
</g>
</svg>
