<?xml version="1.0" encoding="utf-8"?>
<!-- Generator: Adobe Illustrator 16.0.0, SVG Export Plug-In . SVG Version: 6.00 Build 0)  -->
<!DOCTYPE svg PUBLIC "-//W3C//DTD SVG 1.1//EN" "http://www.w3.org/Graphics/SVG/1.1/DTD/svg11.dtd">
<svg version="1.1" id="Layer_1" xmlns="http://www.w3.org/2000/svg" xmlns:xlink="http://www.w3.org/1999/xlink" x="0px" y="0px"
	 width="322.101px" height="261.839px" viewBox="0 0 322.101 261.839" enable-background="new 0 0 322.101 261.839"
	 xml:space="preserve">
<path fill="white" stroke="white" stroke-width="4" stroke-miterlimit="10" d="M9.373,4.141c0,0,22.09-4.817,46.508,0
	c0,0-15.057,106.57,1.203,174.412c5.64,23.532,16.563,39.336,33.009,39.355c0,0,18.555,1.273,27.384-21.281
	c6.037-15.431,7.768-32.784,7.607-110.999c0,0,16.703-4.47,38.936,0c0,0-1.152,67.587,4.878,102.03
	c5.222,29.825,22.406,32.284,34.273,32.164c0,0,15.176-0.12,23.176-19.339c6.151-14.783,12.964-41.77,10.882-92.759
	c-0.08-2.074,0.505-4.284,4.638-4.337c0,0,28.274,2.967,73.474-18.814c0,0,2.538-0.128,3.299,3.908
	c1.105,5.85,1.922,7.932,1.169,16.677c-0.433,4.921-1.098,12.777-9.265,22.167c-9.17,10.553-27.54,11.013-27.621,14.512
	c-0.984,45.458-18.786,117.986-79.951,117.938c0,0-43.683,0.26-59.65-44.68c0,0-10.685,35.705-50.733,43.693
	C92.588,258.788-28.621,290.61,9.373,4.141z"/>
</svg>
