<svg xmlns="http://www.w3.org/2000/svg" xmlns:xlink="http://www.w3.org/1999/xlink" width="14" height="14" viewBox="0 0 14 14"><defs><path id="a" d="M0 0h14v14H0z"/></defs><clipPath id="b"><use xlink:href="#a" overflow="visible"/></clipPath><g clip-path="url(#b)"><defs><path id="c" d="M0 0h14v14H0z"/></defs><clipPath id="d"><use xlink:href="#c" overflow="visible"/></clipPath><g opacity=".2" clip-path="url(#d)"><defs><path id="e" d="M7 .695h6.305v12.609H7z"/></defs><clipPath id="f"><use xlink:href="#e" overflow="visible"/></clipPath><path clip-path="url(#f)" fill="#AAA" d="M13.305 7A6.304 6.304 0 0 0 7.001.696v12.608A6.305 6.305 0 0 0 13.305 7"/></g><path clip-path="url(#d)" fill="#AAA" d="M7.001 14C3.141 14 0 10.859 0 7s3.141-7 7.001-7C10.859 0 14 3.141 14 7s-3.141 7-6.999 7m0-12.608C3.908 1.392 1.392 3.906 1.392 7s2.516 5.609 5.609 5.609S12.608 10.093 12.608 7s-2.514-5.608-5.607-5.608"/><path clip-path="url(#d)" fill="#AAA" d="M7.001 10.948a.696.696 0 0 1-.696-.696V6.999a.695.695 0 0 1 1.391 0v3.253c0 .385-.31.696-.695.696"/></g></svg>